<mxfile host="app.diagrams.net" modified="2024-03-28T11:25:34.877Z" agent="Mozilla/5.0 (Windows NT 10.0; Win64; x64) AppleWebKit/537.36 (KHTML, like Gecko) Chrome/122.0.0.0 Safari/537.36 Edg/122.0.0.0" etag="Mpt_R1J4QxohWvALhIqv" version="24.0.7" type="device">
  <diagram name="Page-1" id="7XIiAJAYsmWdXp6C4IHn">
    <mxGraphModel dx="1088" dy="511" grid="1" gridSize="10" guides="1" tooltips="1" connect="1" arrows="1" fold="1" page="1" pageScale="1" pageWidth="850" pageHeight="1100" math="0" shadow="0">
      <root>
        <mxCell id="0" />
        <mxCell id="1" parent="0" />
        <mxCell id="ByNQJQvQ_VqH7NtEfwI0-5" value="" style="edgeStyle=orthogonalEdgeStyle;rounded=0;orthogonalLoop=1;jettySize=auto;html=1;" parent="1" source="ByNQJQvQ_VqH7NtEfwI0-2" target="ByNQJQvQ_VqH7NtEfwI0-4" edge="1">
          <mxGeometry relative="1" as="geometry" />
        </mxCell>
        <mxCell id="ByNQJQvQ_VqH7NtEfwI0-12" value="" style="edgeStyle=orthogonalEdgeStyle;rounded=0;orthogonalLoop=1;jettySize=auto;html=1;" parent="1" source="ByNQJQvQ_VqH7NtEfwI0-2" target="ByNQJQvQ_VqH7NtEfwI0-11" edge="1">
          <mxGeometry relative="1" as="geometry" />
        </mxCell>
        <mxCell id="ByNQJQvQ_VqH7NtEfwI0-2" value="login to system" style="ellipse;whiteSpace=wrap;html=1;aspect=fixed;" parent="1" vertex="1">
          <mxGeometry x="260" y="30" width="80" height="80" as="geometry" />
        </mxCell>
        <mxCell id="ByNQJQvQ_VqH7NtEfwI0-7" value="" style="edgeStyle=orthogonalEdgeStyle;rounded=0;orthogonalLoop=1;jettySize=auto;html=1;" parent="1" source="ByNQJQvQ_VqH7NtEfwI0-4" target="ByNQJQvQ_VqH7NtEfwI0-6" edge="1">
          <mxGeometry relative="1" as="geometry" />
        </mxCell>
        <mxCell id="ByNQJQvQ_VqH7NtEfwI0-4" value="forgot password" style="whiteSpace=wrap;html=1;" parent="1" vertex="1">
          <mxGeometry x="80" y="40" width="120" height="60" as="geometry" />
        </mxCell>
        <mxCell id="ByNQJQvQ_VqH7NtEfwI0-8" style="edgeStyle=orthogonalEdgeStyle;rounded=0;orthogonalLoop=1;jettySize=auto;html=1;" parent="1" source="ByNQJQvQ_VqH7NtEfwI0-6" target="ByNQJQvQ_VqH7NtEfwI0-2" edge="1">
          <mxGeometry relative="1" as="geometry" />
        </mxCell>
        <mxCell id="ByNQJQvQ_VqH7NtEfwI0-6" value="send email to user" style="rhombus;whiteSpace=wrap;html=1;" parent="1" vertex="1">
          <mxGeometry x="100" y="170" width="90" height="90" as="geometry" />
        </mxCell>
        <mxCell id="ByNQJQvQ_VqH7NtEfwI0-14" value="" style="edgeStyle=orthogonalEdgeStyle;rounded=0;orthogonalLoop=1;jettySize=auto;html=1;" parent="1" source="ByNQJQvQ_VqH7NtEfwI0-11" target="ByNQJQvQ_VqH7NtEfwI0-13" edge="1">
          <mxGeometry relative="1" as="geometry" />
        </mxCell>
        <mxCell id="ByNQJQvQ_VqH7NtEfwI0-16" value="" style="edgeStyle=orthogonalEdgeStyle;rounded=0;orthogonalLoop=1;jettySize=auto;html=1;" parent="1" source="ByNQJQvQ_VqH7NtEfwI0-11" target="ByNQJQvQ_VqH7NtEfwI0-15" edge="1">
          <mxGeometry relative="1" as="geometry" />
        </mxCell>
        <mxCell id="ByNQJQvQ_VqH7NtEfwI0-11" value="check creditentials" style="rhombus;whiteSpace=wrap;html=1;" parent="1" vertex="1">
          <mxGeometry x="420" y="30" width="80" height="80" as="geometry" />
        </mxCell>
        <mxCell id="ByNQJQvQ_VqH7NtEfwI0-13" value="wrong password" style="whiteSpace=wrap;html=1;" parent="1" vertex="1">
          <mxGeometry x="340" y="170" width="100" height="40" as="geometry" />
        </mxCell>
        <mxCell id="ByNQJQvQ_VqH7NtEfwI0-18" value="" style="edgeStyle=orthogonalEdgeStyle;rounded=0;orthogonalLoop=1;jettySize=auto;html=1;" parent="1" source="ByNQJQvQ_VqH7NtEfwI0-15" target="ByNQJQvQ_VqH7NtEfwI0-17" edge="1">
          <mxGeometry relative="1" as="geometry" />
        </mxCell>
        <mxCell id="ByNQJQvQ_VqH7NtEfwI0-15" value="check roles of access" style="whiteSpace=wrap;html=1;" parent="1" vertex="1">
          <mxGeometry x="500" y="165" width="90" height="50" as="geometry" />
        </mxCell>
        <mxCell id="ByNQJQvQ_VqH7NtEfwI0-20" value="" style="edgeStyle=orthogonalEdgeStyle;rounded=0;orthogonalLoop=1;jettySize=auto;html=1;" parent="1" source="ByNQJQvQ_VqH7NtEfwI0-17" target="ByNQJQvQ_VqH7NtEfwI0-19" edge="1">
          <mxGeometry relative="1" as="geometry" />
        </mxCell>
        <mxCell id="ByNQJQvQ_VqH7NtEfwI0-22" value="" style="edgeStyle=orthogonalEdgeStyle;rounded=0;orthogonalLoop=1;jettySize=auto;html=1;" parent="1" source="ByNQJQvQ_VqH7NtEfwI0-17" target="ByNQJQvQ_VqH7NtEfwI0-21" edge="1">
          <mxGeometry relative="1" as="geometry" />
        </mxCell>
        <mxCell id="ByNQJQvQ_VqH7NtEfwI0-25" value="" style="edgeStyle=orthogonalEdgeStyle;rounded=0;orthogonalLoop=1;jettySize=auto;html=1;" parent="1" source="ByNQJQvQ_VqH7NtEfwI0-17" target="ByNQJQvQ_VqH7NtEfwI0-24" edge="1">
          <mxGeometry relative="1" as="geometry" />
        </mxCell>
        <mxCell id="ByNQJQvQ_VqH7NtEfwI0-29" value="" style="edgeStyle=orthogonalEdgeStyle;rounded=0;orthogonalLoop=1;jettySize=auto;html=1;" parent="1" source="ByNQJQvQ_VqH7NtEfwI0-17" target="ByNQJQvQ_VqH7NtEfwI0-28" edge="1">
          <mxGeometry relative="1" as="geometry" />
        </mxCell>
        <mxCell id="U4fzbxpIB97MWsFCFijz-12" value="" style="edgeStyle=orthogonalEdgeStyle;rounded=0;orthogonalLoop=1;jettySize=auto;html=1;" edge="1" parent="1" source="ByNQJQvQ_VqH7NtEfwI0-17" target="U4fzbxpIB97MWsFCFijz-11">
          <mxGeometry relative="1" as="geometry" />
        </mxCell>
        <mxCell id="ByNQJQvQ_VqH7NtEfwI0-17" value="manage modules" style="rhombus;whiteSpace=wrap;html=1;" parent="1" vertex="1">
          <mxGeometry x="505" y="280" width="80" height="80" as="geometry" />
        </mxCell>
        <mxCell id="ByNQJQvQ_VqH7NtEfwI0-19" value="manage roles" style="whiteSpace=wrap;html=1;" parent="1" vertex="1">
          <mxGeometry x="497.5" y="420" width="95" height="40" as="geometry" />
        </mxCell>
        <mxCell id="U4fzbxpIB97MWsFCFijz-2" value="" style="edgeStyle=orthogonalEdgeStyle;rounded=0;orthogonalLoop=1;jettySize=auto;html=1;" edge="1" parent="1" source="ByNQJQvQ_VqH7NtEfwI0-21" target="U4fzbxpIB97MWsFCFijz-1">
          <mxGeometry relative="1" as="geometry" />
        </mxCell>
        <mxCell id="U4fzbxpIB97MWsFCFijz-4" value="" style="edgeStyle=orthogonalEdgeStyle;rounded=0;orthogonalLoop=1;jettySize=auto;html=1;" edge="1" parent="1" source="ByNQJQvQ_VqH7NtEfwI0-21" target="U4fzbxpIB97MWsFCFijz-3">
          <mxGeometry relative="1" as="geometry" />
        </mxCell>
        <mxCell id="U4fzbxpIB97MWsFCFijz-6" value="" style="edgeStyle=orthogonalEdgeStyle;rounded=0;orthogonalLoop=1;jettySize=auto;html=1;" edge="1" parent="1" source="ByNQJQvQ_VqH7NtEfwI0-21" target="U4fzbxpIB97MWsFCFijz-5">
          <mxGeometry relative="1" as="geometry" />
        </mxCell>
        <mxCell id="U4fzbxpIB97MWsFCFijz-8" value="" style="edgeStyle=orthogonalEdgeStyle;rounded=0;orthogonalLoop=1;jettySize=auto;html=1;" edge="1" parent="1" source="ByNQJQvQ_VqH7NtEfwI0-21" target="U4fzbxpIB97MWsFCFijz-7">
          <mxGeometry relative="1" as="geometry" />
        </mxCell>
        <mxCell id="ByNQJQvQ_VqH7NtEfwI0-21" value="add product" style="whiteSpace=wrap;html=1;" parent="1" vertex="1">
          <mxGeometry x="92.5" y="300" width="95" height="40" as="geometry" />
        </mxCell>
        <mxCell id="ByNQJQvQ_VqH7NtEfwI0-24" value="manage shoes details" style="whiteSpace=wrap;html=1;" parent="1" vertex="1">
          <mxGeometry x="342.5" y="360" width="95" height="50" as="geometry" />
        </mxCell>
        <mxCell id="ByNQJQvQ_VqH7NtEfwI0-28" value="manage order" style="whiteSpace=wrap;html=1;" parent="1" vertex="1">
          <mxGeometry x="610" y="420" width="60" height="50" as="geometry" />
        </mxCell>
        <mxCell id="U4fzbxpIB97MWsFCFijz-1" value="insert image" style="whiteSpace=wrap;html=1;" vertex="1" parent="1">
          <mxGeometry y="400" width="67.5" height="30" as="geometry" />
        </mxCell>
        <mxCell id="U4fzbxpIB97MWsFCFijz-3" value="insert name" style="whiteSpace=wrap;html=1;" vertex="1" parent="1">
          <mxGeometry x="70" y="405" width="70" height="20" as="geometry" />
        </mxCell>
        <mxCell id="U4fzbxpIB97MWsFCFijz-5" value="insert price" style="whiteSpace=wrap;html=1;" vertex="1" parent="1">
          <mxGeometry x="150" y="405" width="70" height="20" as="geometry" />
        </mxCell>
        <mxCell id="U4fzbxpIB97MWsFCFijz-7" value="insert description" style="whiteSpace=wrap;html=1;" vertex="1" parent="1">
          <mxGeometry x="230" y="405" width="100" height="30" as="geometry" />
        </mxCell>
        <mxCell id="U4fzbxpIB97MWsFCFijz-14" value="" style="edgeStyle=orthogonalEdgeStyle;rounded=0;orthogonalLoop=1;jettySize=auto;html=1;" edge="1" parent="1" source="U4fzbxpIB97MWsFCFijz-11" target="U4fzbxpIB97MWsFCFijz-13">
          <mxGeometry relative="1" as="geometry" />
        </mxCell>
        <mxCell id="U4fzbxpIB97MWsFCFijz-11" value="delete product" style="whiteSpace=wrap;html=1;" vertex="1" parent="1">
          <mxGeometry x="725" y="302.5" width="70" height="35" as="geometry" />
        </mxCell>
        <mxCell id="U4fzbxpIB97MWsFCFijz-13" value="confirmation message" style="rhombus;whiteSpace=wrap;html=1;" vertex="1" parent="1">
          <mxGeometry x="720" y="400" width="80" height="80" as="geometry" />
        </mxCell>
      </root>
    </mxGraphModel>
  </diagram>
</mxfile>
